<?xml version="1.0" standalone="no"?>
<!DOCTYPE svg PUBLIC "-//W3C//DTD SVG 20010904//EN"
 "http://www.w3.org/TR/2001/REC-SVG-20010904/DTD/svg10.dtd">
<svg version="1.0" xmlns="http://www.w3.org/2000/svg"
 width="2048.000000pt" height="2048.000000pt" viewBox="0 0 2048.000000 2048.000000"
 preserveAspectRatio="xMidYMid meet">

<g transform="translate(0.000000,2048.000000) scale(0.100000,-0.100000)"
fill="#000000" stroke="none">
<path d="M4960 14852 c-23 -11 -43 -33 -57 -62 l-23 -44 0 -3714 0 -3715 22
-35 c12 -20 38 -42 62 -53 39 -18 98 -19 1461 -19 828 0 1482 -4 1570 -10 256
-17 612 -85 835 -160 464 -156 870 -418 1165 -751 122 -138 168 -169 244 -169
77 0 114 26 265 185 143 152 232 229 416 362 183 132 328 212 538 297 416 169
819 246 1290 246 102 0 172 4 170 9 -1 5 -46 56 -99 113 -52 57 -113 123 -134
147 l-39 43 -126 -6 c-508 -28 -950 -144 -1387 -365 -269 -136 -546 -324 -678
-460 -21 -23 -45 -41 -52 -41 -10 0 -12 159 -10 778 l2 777 35 3 c64 5 314 33
348 38 l32 6 0 -421 0 -421 29 12 c15 7 83 38 150 68 l121 55 0 386 0 386 143
48 c161 54 395 151 477 197 101 57 115 65 205 118 50 29 111 68 138 86 26 19
53 34 60 34 8 0 29 -19 47 -42 19 -24 102 -113 185 -198 155 -159 260 -271
284 -303 12 -15 10 -20 -13 -38 -32 -25 -61 -79 -70 -132 -12 -65 18 -111 186
-284 84 -87 183 -189 218 -227 36 -39 124 -131 195 -205 72 -75 178 -185 235
-246 57 -60 156 -164 220 -231 63 -66 160 -167 214 -225 55 -57 138 -144 185
-194 48 -49 151 -160 231 -245 588 -629 628 -669 760 -735 118 -59 201 -79
330 -79 138 0 196 13 315 68 218 103 370 289 426 522 37 157 13 356 -61 505
-33 65 -89 138 -179 234 -162 170 -287 302 -436 455 -359 370 -825 861 -1225
1290 -146 157 -326 347 -401 424 l-136 140 -61 4 c-69 5 -101 -9 -161 -72 -19
-20 -38 -36 -41 -36 -4 0 -127 124 -275 276 l-267 276 35 36 c94 99 311 483
409 722 84 204 163 500 204 766 27 168 28 198 28 494 0 365 -13 483 -89 789
-107 430 -260 780 -491 1118 -97 142 -123 175 -242 308 -315 353 -659 609
-1112 829 -119 57 -403 158 -570 201 -274 71 -675 107 -956 86 -329 -25 -587
-77 -870 -176 -281 -99 -457 -187 -721 -360 -495 -326 -878 -757 -1141 -1280
-83 -166 -127 -272 -177 -420 -41 -124 -109 -382 -124 -471 -6 -32 -15 -86
-21 -119 -21 -118 -30 -233 -34 -440 -8 -405 33 -693 155 -1090 131 -424 363
-826 698 -1207 61 -69 131 -143 156 -165 l44 -38 -67 -85 c-107 -135 -264
-321 -320 -376 -64 -62 -127 -94 -201 -103 -53 -6 -223 -7 -518 -3 l-131 2
-46 64 c-146 204 -365 268 -571 167 -172 -85 -265 -245 -252 -432 12 -183 150
-353 326 -405 74 -21 195 -15 273 15 75 29 186 132 233 216 l36 63 367 4 367
3 70 29 c156 65 252 136 363 271 146 178 231 281 270 325 36 41 41 43 60 30
353 -254 631 -398 992 -515 47 -15 89 -31 93 -35 4 -4 8 -179 7 -389 l0 -382
36 -15 c54 -23 205 -92 236 -108 15 -8 30 -11 33 -6 3 4 5 191 4 415 0 224 1
408 3 410 2 2 93 -7 203 -19 l200 -21 3 -773 c2 -629 0 -772 -11 -772 -7 0
-31 18 -52 41 -78 80 -308 248 -460 336 -484 280 -961 430 -1490 468 -49 4
-108 8 -130 10 -22 2 -651 4 -1397 4 l-1358 1 0 3519 0 3519 51 4 c28 1 546 0
1152 -3 956 -4 1118 -7 1222 -22 219 -31 309 -47 400 -71 l90 -25 50 30 c120
73 250 165 250 178 0 13 -13 18 -145 59 -95 30 -292 78 -390 96 -323 60 -491
66 -1760 66 -1042 0 -1117 -1 -1150 -18z m5670 -331 c289 -40 507 -102 765
-216 297 -131 467 -235 700 -426 516 -423 843 -938 1025 -1614 67 -251 93
-453 94 -735 0 -358 -33 -586 -135 -905 -80 -254 -226 -567 -355 -761 -280
-423 -711 -809 -1141 -1023 -156 -78 -426 -191 -454 -191 -8 0 -19 -4 -25 -9
-15 -14 -288 -79 -404 -95 -58 -9 -178 -21 -267 -27 -268 -20 -645 14 -899 81
-263 70 -503 168 -764 313 -271 150 -628 453 -822 698 -168 212 -263 359 -356
549 -173 355 -272 690 -312 1055 -10 96 -16 497 -7 512 3 5 8 48 11 98 7 93
55 355 82 454 80 289 199 578 326 790 383 640 976 1116 1676 1345 388 127 840
165 1262 107z m2152 -5408 c257 -261 353 -365 353 -382 0 -9 -57 -72 -127
-139 l-126 -123 -114 114 c-111 112 -351 366 -376 399 -11 14 3 32 115 142 70
69 131 126 134 126 3 0 67 -62 141 -137z m913 -556 c72 -72 155 -159 184 -192
80 -88 299 -322 432 -460 63 -66 135 -142 160 -170 24 -27 107 -115 184 -195
77 -80 262 -273 410 -430 149 -156 329 -345 401 -420 254 -261 263 -273 296
-370 18 -51 22 -86 21 -166 -1 -92 -3 -106 -35 -175 -45 -96 -109 -161 -208
-208 -64 -31 -87 -37 -160 -40 -99 -4 -175 11 -245 47 -72 38 -264 232 -784
792 -85 91 -188 201 -231 245 -42 44 -118 125 -170 180 -170 181 -413 437
-550 580 -419 436 -471 494 -461 512 19 34 601 603 617 603 5 0 68 -60 139
-133z m-7257 -79 c35 -22 71 -84 72 -125 0 -13 -7 -40 -16 -62 -43 -108 -203
-125 -263 -28 -25 41 -28 124 -6 166 35 68 142 93 213 49z"/>
<path d="M10040 14128 c-271 -17 -630 -116 -915 -253 -270 -130 -633 -412
-829 -645 -153 -181 -354 -506 -426 -690 -91 -229 -147 -438 -177 -660 -25
-188 -25 -557 0 -725 47 -307 118 -536 247 -795 146 -293 267 -457 526 -712
129 -126 191 -177 354 -284 207 -137 346 -210 530 -277 337 -123 554 -164 885
-166 225 -2 390 17 600 69 255 62 380 110 630 244 531 285 971 792 1190 1372
31 82 79 260 106 396 69 343 66 719 -7 1077 -51 248 -192 605 -316 801 -148
233 -233 342 -372 482 -186 187 -327 295 -571 440 -225 134 -581 263 -835 302
-171 26 -429 36 -620 24z m42 -321 c10 -16 10 -2987 1 -2987 -5 1 -32 36 -61
79 -92 138 -325 355 -474 442 -118 69 -255 133 -373 174 -223 77 -293 120
-360 223 -61 95 -83 170 -95 314 -12 140 -37 242 -81 331 -63 124 -107 177
-236 281 -40 32 -73 62 -73 67 0 11 131 199 188 269 133 164 269 293 442 416
123 88 125 89 160 64 54 -38 159 -163 194 -229 47 -90 86 -252 86 -355 0 -136
-58 -337 -143 -493 -21 -41 -37 -80 -34 -87 3 -8 36 -32 74 -54 37 -22 85 -54
107 -71 21 -17 43 -31 47 -31 15 0 93 129 131 215 37 83 77 201 100 295 8 35
13 119 13 235 0 209 -12 263 -93 436 -45 96 -133 222 -190 273 -12 11 -22 25
-22 31 0 39 419 154 610 168 19 1 44 3 55 4 11 1 23 -3 27 -10z m448 -1 c148
-13 373 -71 534 -137 127 -52 376 -187 376 -204 0 -5 -46 -44 -101 -85 -152
-113 -252 -237 -318 -397 -37 -91 -51 -175 -51 -315 l0 -115 -57 -41 c-89 -62
-133 -110 -170 -189 -92 -192 -26 -442 148 -553 27 -18 81 -43 121 -57 109
-38 199 -29 333 32 47 22 112 82 151 141 73 110 95 214 70 333 -26 123 -99
222 -227 306 -78 51 -75 41 -59 195 13 124 42 207 96 280 46 61 75 88 227 210
l88 71 57 -48 c71 -60 61 -49 163 -168 255 -298 387 -531 490 -864 38 -124 89
-380 92 -466 l2 -67 -195 0 c-268 0 -380 -17 -515 -82 -158 -75 -229 -149
-490 -508 l-40 -55 -90 4 c-71 4 -103 1 -152 -15 -124 -41 -210 -118 -271
-242 -36 -73 -37 -77 -37 -190 1 -110 2 -118 35 -185 105 -218 363 -313 572
-211 214 104 311 329 234 546 -43 119 -43 110 15 197 29 43 62 90 73 104 12
14 32 40 46 59 86 114 135 167 181 196 103 66 187 81 463 83 l179 1 -6 -68
c-58 -617 -391 -1225 -872 -1593 -141 -108 -465 -299 -506 -299 -5 0 -9 93 -9
210 l0 210 -27 -6 c-83 -20 -187 -65 -245 -106 l-28 -19 0 -199 0 -199 -37
-10 c-133 -35 -358 -69 -371 -57 -12 12 -14 4543 -2 4565 7 14 18 18 37 16 16
-2 57 -6 93 -9z m-2267 -1416 c36 -39 74 -90 86 -115 33 -71 59 -181 71 -301
19 -204 76 -344 188 -465 116 -125 227 -198 382 -250 309 -103 462 -197 675
-414 244 -249 360 -503 406 -895 25 -218 28 -707 4 -716 -19 -8 -213 20 -315
45 l-75 18 -6 329 c-5 318 -6 332 -33 428 -33 122 -57 179 -114 276 -134 224
-349 400 -572 466 -136 40 -187 45 -535 45 l-342 0 -26 97 c-14 53 -31 122
-36 152 -6 30 -16 78 -22 105 -17 77 -23 476 -10 581 17 127 45 256 90 413 38
131 95 271 111 271 5 0 37 -32 73 -70z m2954 -131 c37 -23 73 -84 73 -125 0
-70 -66 -140 -141 -150 -55 -6 -104 17 -137 66 -20 29 -23 45 -20 92 5 61 20
87 73 119 41 26 109 24 152 -2z m-35 -1529 c11 0 38 -17 59 -39 36 -35 39 -43
39 -92 0 -70 -24 -118 -75 -146 -71 -40 -142 -22 -189 46 -45 64 -34 153 23
205 21 19 85 37 109 30 8 -2 23 -4 34 -4z m-2425 -201 c144 -19 326 -118 429
-232 95 -105 147 -206 175 -342 11 -54 15 -532 5 -543 -7 -6 -233 114 -322
173 -342 223 -579 472 -766 810 -31 55 -59 110 -63 123 l-6 22 235 0 c129 0
270 -5 313 -11z"/>
<path d="M13170 14863 c-406 -28 -652 -71 -970 -168 -91 -28 -110 -33 -123
-34 -5 -1 -6 -5 -3 -9 4 -7 265 -184 301 -204 6 -3 44 3 85 13 141 36 244 54
455 81 76 10 373 13 1239 13 l1140 0 2 -3335 c1 -1834 2 -3373 3 -3420 l1 -85
146 -147 c80 -82 147 -148 149 -148 3 0 5 1653 5 3673 l0 3672 -25 37 c-50 73
40 68 -1224 66 -625 -1 -1156 -3 -1181 -5z"/>
<path d="M7140 14114 c-423 -49 -772 -298 -958 -684 -85 -177 -132 -444 -112
-640 7 -61 47 -241 75 -336 5 -17 -6 -29 -72 -71 -196 -127 -316 -263 -418
-468 -84 -171 -107 -258 -113 -445 -3 -109 0 -168 12 -235 37 -200 111 -373
220 -510 57 -72 207 -219 258 -252 24 -15 46 -32 50 -37 3 -5 11 -42 17 -82
19 -126 66 -243 144 -358 113 -167 312 -295 529 -342 102 -21 360 -20 400 3 4
2 -25 66 -63 143 l-69 140 -95 0 c-153 0 -277 52 -386 163 -69 70 -139 196
-159 288 -17 76 -8 209 18 283 42 116 165 272 245 310 21 9 37 24 37 34 0 54
-24 278 -31 286 -5 6 -17 5 -31 -1 -13 -6 -41 -19 -63 -28 -55 -24 -168 -101
-227 -154 -66 -59 -134 -156 -174 -249 -18 -42 -38 -77 -44 -77 -15 0 -88 73
-122 122 -46 68 -125 233 -144 303 -13 47 -18 101 -18 195 0 191 23 270 130
450 62 105 148 193 251 259 l73 46 82 -87 c75 -78 257 -213 288 -213 5 0 10
15 10 33 0 17 9 83 20 146 11 62 20 120 20 128 0 8 -21 33 -46 56 -175 159
-290 397 -302 624 -21 421 250 807 658 935 64 20 96 23 220 23 80 0 157 -3
172 -8 25 -6 35 2 132 110 58 65 106 120 106 123 0 9 -126 48 -190 59 -65 11
-279 21 -330 15z"/>
<path d="M13089 14110 c-89 -9 -171 -27 -208 -46 -14 -8 -32 -14 -38 -14 -7 0
-13 -3 -13 -6 0 -7 186 -231 198 -238 4 -2 57 1 117 7 210 20 395 -27 568
-144 190 -129 305 -289 364 -509 25 -94 28 -121 27 -260 0 -142 -2 -162 -28
-238 -59 -180 -110 -261 -238 -383 l-80 -76 22 -149 c13 -82 25 -157 29 -166
11 -29 148 62 269 179 l106 103 54 -33 c146 -88 239 -194 315 -357 64 -136 82
-219 82 -370 0 -138 -19 -218 -77 -334 -43 -86 -131 -216 -171 -255 -32 -30
-57 -35 -57 -10 0 28 -75 166 -123 226 -67 84 -111 124 -204 186 -63 42 -183
100 -191 93 -1 -2 -7 -52 -12 -112 -6 -60 -13 -127 -16 -149 -6 -40 -5 -41 51
-79 184 -127 286 -346 256 -549 -15 -99 -84 -239 -154 -310 -113 -116 -222
-166 -387 -176 l-105 -6 -57 -117 c-82 -167 -81 -164 -16 -171 182 -22 347 -2
499 62 172 72 280 160 377 309 74 113 122 238 146 383 5 31 18 45 74 87 83 62
225 207 279 287 228 336 262 770 88 1132 -24 51 -63 121 -86 155 -63 93 -230
255 -331 321 -49 32 -88 62 -88 67 0 5 11 42 24 82 85 258 80 554 -15 810 -61
165 -163 320 -294 447 -166 160 -350 260 -568 307 -82 18 -276 25 -388 14z"/>
<path d="M4154 14100 c-12 -5 -35 -25 -50 -46 l-29 -37 -3 -3851 c-2 -2861 0
-3862 9 -3893 13 -48 39 -76 91 -98 33 -13 304 -15 2546 -15 l2509 0 12 -27
c52 -114 217 -309 344 -406 131 -101 327 -183 497 -208 93 -13 292 -8 380 11
133 28 301 97 407 167 127 84 285 259 365 403 l33 60 1327 0 c731 0 1328 3
1328 7 0 4 -46 54 -103 112 -56 59 -119 125 -140 149 l-37 42 -1239 0 c-852 0
-1249 -3 -1268 -11 -45 -17 -82 -59 -124 -143 -105 -210 -302 -392 -488 -450
-136 -43 -180 -49 -322 -44 -123 4 -141 7 -226 40 -131 50 -195 91 -294 188
-90 89 -137 153 -208 283 -25 45 -58 89 -78 105 l-36 27 -2488 3 -2487 2 -3
23 c-2 12 -4 1662 -4 3667 l0 3645 113 3 112 3 0 149 0 150 -212 -1 c-117 0
-223 -4 -234 -9z"/>
<path d="M15890 14108 c0 -2 -1 -69 -3 -151 l-2 -147 112 0 113 0 0 -3312 0
-3313 102 -3 c122 -3 152 7 179 59 19 38 19 88 19 3400 0 3119 -1 3364 -17
3396 -32 68 -51 73 -290 73 -117 0 -213 -1 -213 -2z"/>
</g>
</svg>
